<?xml version="1.0" encoding="UTF-8"?><svg xmlns="http://www.w3.org/2000/svg" xmlns:xlink="http://www.w3.org/1999/xlink" viewBox="0 0 223.85 44.92"><defs><style>.aa{fill:url(#t);}.ab{fill:url(#r);}.ac{fill:url(#l);}.ad{fill:url(#u);}.ae{fill:url(#v);}.af{fill:url(#a`);}.ag{fill:url(#m);}.ah{fill:url(#f);}.ai{fill:url(#p);}.aj{fill:url(#g);}.ak{font-family:ArialNarrow, Arial;font-size:6.63px;letter-spacing:-.07em;}.al{fill:none;stroke:url(#y);stroke-miterlimit:10;stroke-width:.75px;}.am{fill:url(#i);}.an{fill:url(#h);}.ao{fill:url(#d);}.ap{fill:url(#e);}.aq{fill:url(#x);}.ar{fill:url(#s);}.as{fill:url(#n);}.at{fill:url(#w);}.au{fill:url(#j);}.av{fill:url(#o);}.aw{fill:url(#q);}.ax{fill:url(#k);}</style><linearGradient id="d" x1="34.09" y1="-38.25" x2="27.07" y2="-39.47" gradientTransform="translate(-2.12 68.11) rotate(.12)" gradientUnits="userSpaceOnUse"><stop offset="0" stop-color="#e09d18"/><stop offset="0" stop-color="#f9c924"/><stop offset=".68" stop-color="#fff98c"/><stop offset="1" stop-color="#ffd440"/></linearGradient><linearGradient id="e" x1="34.83" y1="-51.77" x2="24.82" y2="-53.51" xlink:href="#d"/><linearGradient id="f" x1="35.54" y1="-57.5" x2="20.37" y2="-60.14" xlink:href="#d"/><linearGradient id="g" x1="23.3" y1="-56.42" x2="15.34" y2="-57.81" xlink:href="#d"/><linearGradient id="h" x1="22.8" y1="-55.19" x2="11.37" y2="-57.18" xlink:href="#d"/><linearGradient id="i" x1="18.42" y1="-47.06" x2="6.6" y2="-49.12" xlink:href="#d"/><linearGradient id="j" x1="23.85" y1="-41.41" x2="13.89" y2="-43.15" xlink:href="#d"/><linearGradient id="k" x1="37.11" y1="-23.36" x2="3.13" y2="-29.27" xlink:href="#d"/><linearGradient id="l" x1="32.36" y1="-34.71" x2="24.9" y2="-36.01" xlink:href="#d"/><linearGradient id="m" x1="28.06" y1="-31.77" x2="19.27" y2="-33.31" xlink:href="#d"/><linearGradient id="n" x1="24.81" y1="-36.33" x2="7.38" y2="-39.36" xlink:href="#d"/><linearGradient id="o" x1="129.3" y1="-31.65" x2="129.25" y2="-56.02" xlink:href="#d"/><linearGradient id="p" x1="129.3" y1="-31.65" x2="129.25" y2="-56.02" xlink:href="#d"/><linearGradient id="q" x1="129.3" y1="-31.65" x2="129.25" y2="-56.02" xlink:href="#d"/><linearGradient id="r" x1="129.3" y1="-31.65" x2="129.25" y2="-56.02" xlink:href="#d"/><linearGradient id="s" x1="129.3" y1="-31.65" x2="129.25" y2="-56.02" xlink:href="#d"/><linearGradient id="t" x1="129.3" y1="-31.65" x2="129.25" y2="-56.02" xlink:href="#d"/><linearGradient id="u" x1="129.3" y1="-31.65" x2="129.25" y2="-56.02" xlink:href="#d"/><linearGradient id="v" x1="129.3" y1="-31.65" x2="129.25" y2="-56.02" xlink:href="#d"/><linearGradient id="w" x1="129.3" y1="-31.65" x2="129.25" y2="-56.02" xlink:href="#d"/><linearGradient id="x" x1="129.3" y1="-31.65" x2="129.25" y2="-56.02" xlink:href="#d"/><linearGradient id="y" x1="216.35" y1="-54.07" x2="225.79" y2="-52.43" xlink:href="#d"/><linearGradient id="a`" x1="223.1" y1="-50.68" x2="219.29" y2="-55.19" xlink:href="#d"/></defs><g id="a"/><g id="b"><g id="c"><g><g><path class="ao" d="M29.99,37.16s.66-.65,.7-2c0,0,.06-.64-.1-1.48,0,0-.2-1.02-1.3-2.43,0,0-.74-1.15-1.92-2.4,0,0-1.22-1.28-1.62-2.79,0,0-.72-2.62,2.27-4.42,0,0-.93,.57-.75,2.91,0,0,.41,.57,1.42-.78,0,0,.07,.6-1.27,1.65,0,0-.94,.6-.05,2.05,0,0,.18,.57,1.89,2.61,0,0,1.14,.98,1.83,3.18,0,0,.76,1.58-1.12,3.91Z"/><path class="ap" d="M20.95,25.23s2.62-1.31,2.77-4.64c0,0,.35-1.99-.5-5.38,0,0-.18-1.18,.17-1.46,0,0,3.33-2.43,5.54-3.66,0,0,4.69-2.8,5.76-4.25,0,0-.21,1.55-2.23,3.6,0,0-1.35,1.38-4.01,2.99,0,0-2.66,1.7-3.82,2.82,0,0,.64,2.88,.14,5.42,0,0-.39,3.17-3.82,4.56Z"/><path class="ah" d="M19.59,19.2s1.31-.2,2.62,.29c0,0-.45-2.83-.99-3.89,0,0-1.22-2.26,.31-3.09,0,0,7.13-4.36,8.31-5.17,0,0,6-2.89,5.36-7.35,0,0-.8,3.11-6.29,5.66,0,0-2.69,1.61-7.5,3.29,0,0-3.3,.86-3.63,2.54,0,0-.24,1.64,1.01,3.65,0,0,1.29,1.61,1.4,2.22,0,0,.37,1.19-.59,1.84Z"/><path class="aj" d="M18.04,15.51l-4.65-5.42s3.08-3.24,8.65-2.58c0,0-6.15,.5-6.95,2.74,0,0,2.51,4.14,2.95,5.26Z"/><path class="an" d="M18.2,18.95v-.73s0-.38-.28-.51c0,0-8.31-7.6-8.37-7.75,0,0,1.49-3.03,6.53-3.65,0,0,2.75-.2,5.82,.41,0,0-3.21-.28-5.38,.24,0,0-2.89,.61-4.5,2.95,0,0,4.36,4.92,6.38,7.44,0,0,.34,.7-.21,1.59Z"/><path class="am" d="M16.77,18.99s-6.94-3.9-6.97-4.08l-1-.05s1,.68,1.32,1.67c0,0,.63,.31-4,2.01,0,0,.93,.52,.9,.61,0,0-2.08,.94-2.88,2.28,0,0,.03,.8,1.93,2.86,0,0-1-2.38-.71-2.8,0,0,1.06-1.33,2.78-2.11l-.7-.27s-.09-.22,.09-.29c0,0,.77-.54,1.83-.73,0,0,.58-.11,.27,.31l-.84,1.01s1.1-.68,1.23-.71c0,0,.38-.24,1.01,.09s1.04,1,2.46,.93c0,0,.85,0,1.58-.48,0,0-1.64-.17-1.97-.91,0,0-.22-.47,.46-.18,0,0,.45,.29,3.18,.84Z"/><path class="au" d="M19.95,20.21s1.53,.74,1.17,2.62c0,0-.1,.75-1.18,1.63,0,0,.13-1.42-1.25-2.69,0,0-2.56-2-4.52,.15,0,0-1.33,1.66,1.17,2.72l4.85,2.47s.9,.46,1.14-1.09c0,0,.62,.71,.11,2.72,0,0-.75,3.31-4.7,2.71,0,0-.7-.09-1.38-.4,0,0-2.02-.94-1.89,.47,0,0-1.75-1.07-1.07-3.08,0,0,.29-.82,1.04-1.14,0,0-.08,1.2,1.08,2.53,0,0,.92,.93,1.9,.93,0,0,3.07,.38,3.36-1.61l-5.8-2.99s-2.19-1.26-1.72-3.37c0,0,.67-2.54,3.44-2.57,0,0,1.49-.12,2.89,.54,0,0,1.24,.74,1.37-.53Z"/><polygon class="ax" points="4.13 38.11 2.57 38.1 0 44.92 35.05 44.8 32.76 38.17 28.18 38.16 4.13 38.11"/><path class="ac" d="M24.11,27.12s-.38,1.54,1.15,2.32c0,0,1.16,.74,3.29,2.84,0,0,1.46,1.29,1.31,3.74,0,0-.09,1.14-1.83,2.13h-.95s.97-.2,1.44-.85c0,0,.59-.73,.54-1.37,0,0,.17-.92-.21-1.49,0,0-1.15-1.62-3.79-3.14,0,0-1.29-.86-1.6-2.17,0,0-.01-1.41,.67-2.02Z"/><path class="ag" d="M25.69,38.15h-2.19l-.55-.75-.62,.74-4.14,.04s.33-.69,1.23-.94c0,0,.17-.31-.24-.38,0,0-1.37-.26-2.05,1.31h-.5s.48-1,1.91-1.64c0,0,1.29-.41,1.54,.46h.57s.41-.28,.46-.55c0,0,.12-1.86,2.38-3.94,0,0-.9,2.26-.12,3.51,0,0,.52,1.07,2.33,2.13Z"/><path class="as" d="M10.29,38.17H5.92s.45-.75,1.11-.96c0,0,.16-.41-.51-.41,0,0-.99-.04-1.7,1.31h-.64s.76-1.4,1.99-1.6c0,0,1.07-.21,1.63,.83h.54s.46-.06,.69-1.07c0,0,.46-2.63,.88-4.01,0,0,.17-.76,0-1.04,0,0-2.02-2.12-1.21-6.55,0,0-.43-.19-1.2,1.22,0,0-.33-3.14,.89-3.94,0,0,.37-.57-1.92,.48,0,0,.42-1.36,2.92-2.44,0,0-.09,.37-.03,.4,0,0,1.64-.2,2.6,0,0,0-3.26,.83-3.04,3.15,0,0,.18,.21,.31-.13,0,0,.83-1.07,1.82-1.45,0,0-1.94,2.43-1.21,5.91,0,0,.45,2.7,3.04,4.18,0,0,3.93,2.75,9.8,.33,0,0-1.48,2-5.69,1.79,0,0-2.49,.04-4.71-1.43,0,0-2.06,3.16-2.58,4.23,0,0-.29,.29,.6,1.2Z"/></g><g><g><path class="av" d="M41.61,32.35l1.66-.97c1.16,2.11,2.5,3.16,4.03,3.17,.65,0,1.27-.15,1.84-.44,.57-.3,1.01-.7,1.31-1.2s.45-1.03,.45-1.6c0-.64-.22-1.27-.66-1.88-.61-.85-1.72-1.87-3.33-3.07-1.62-1.21-2.63-2.08-3.02-2.62-.69-.9-1.03-1.88-1.03-2.92,0-.83,.21-1.59,.61-2.27,.41-.68,.98-1.22,1.72-1.61,.74-.39,1.54-.59,2.4-.59,.92,0,1.77,.23,2.57,.67,.8,.45,1.64,1.27,2.53,2.47l-1.59,1.18c-.73-.95-1.35-1.58-1.87-1.89-.51-.3-1.08-.46-1.69-.46-.79,0-1.43,.23-1.93,.7-.5,.47-.75,1.04-.75,1.73,0,.42,.09,.82,.26,1.21s.5,.81,.96,1.27c.26,.24,1.09,.88,2.51,1.91,1.68,1.22,2.83,2.31,3.46,3.27,.62,.95,.94,1.91,.93,2.87,0,1.39-.54,2.59-1.62,3.61-1.07,1.02-2.38,1.53-3.91,1.52-1.18,0-2.25-.31-3.21-.94-.96-.62-1.84-1.66-2.65-3.12Z"/><path class="ai" d="M63.1,16.85l9.03,19.12h-2.1l-3.05-6.3-8.38-.02-3.04,6.28h-2.17l9.24-19.09h.48Zm-.25,4.06l-3.35,6.91h6.65l-3.3-6.91Z"/><path class="aw" d="M91.95,20.12l-1.51,1.4c-1.08-1.05-2.27-1.85-3.56-2.39s-2.55-.82-3.78-.82c-1.53,0-2.98,.36-4.36,1.09s-2.45,1.73-3.21,2.99c-.76,1.26-1.14,2.59-1.15,3.99,0,1.44,.38,2.8,1.17,4.1s1.87,2.32,3.25,3.06c1.38,.74,2.9,1.12,4.55,1.12,2,0,3.7-.55,5.08-1.65,1.39-1.11,2.21-2.54,2.47-4.31h-6.21v-1.86l8.39,.02c-.02,2.95-.92,5.29-2.69,7.03-1.77,1.73-4.14,2.59-7.1,2.59-3.6,0-6.44-1.22-8.54-3.63-1.61-1.86-2.41-4-2.41-6.43,0-1.81,.47-3.49,1.4-5.05,.93-1.56,2.2-2.77,3.82-3.65,1.62-.88,3.44-1.31,5.48-1.31,1.65,0,3.2,.3,4.66,.89,1.46,.59,2.87,1.53,4.25,2.82Zm-14-7.74h1.75c.3,.45,.7,.79,1.2,1.02,.5,.23,1.1,.34,1.8,.34,.71,0,1.27-.1,1.71-.29,.43-.2,.84-.55,1.23-1.05h1.69c-.2,.78-.69,1.43-1.49,1.95-.8,.52-1.85,.78-3.16,.78-1.3,0-2.36-.26-3.17-.78-.82-.52-1.34-1.17-1.56-1.97Z"/><path class="ab" d="M94.81,16.92h1.95l-.04,17.26,7.49,.02v1.84l-9.44-.02,.04-19.1Z"/><path class="ar" d="M113.27,16.96l9.03,19.12h-2.1l-3.05-6.3-8.38-.02-3.04,6.28h-2.17l9.24-19.09h.48Zm-.25,4.06l-3.35,6.91h6.65l-3.3-6.91Z"/><path class="aa" d="M122.43,36.08l2.83-19.1h.32l7.88,15.69,7.87-15.66h.31l2.76,19.11h-1.91l-1.89-13.67-6.91,13.65h-.5l-6.93-13.78-1.94,13.76h-1.88Z"/><path class="ad" d="M155.52,16.57c2.95,0,5.41,.98,7.39,2.91s2.97,4.31,2.96,7.14c0,2.8-1,5.17-2.99,7.11-1.99,1.94-4.4,2.91-7.25,2.91-2.89,0-5.32-.98-7.3-2.92-1.98-1.94-2.97-4.29-2.96-7.04,0-1.83,.46-3.54,1.37-5.1,.91-1.56,2.14-2.79,3.71-3.67,1.56-.88,3.26-1.32,5.07-1.32Zm.08,1.86c-1.44,0-2.81,.36-4.1,1.1-1.29,.73-2.3,1.72-3.03,2.97s-1.09,2.64-1.1,4.17c0,2.27,.79,4.19,2.39,5.76,1.6,1.57,3.53,2.35,5.79,2.36,1.51,0,2.91-.35,4.2-1.07,1.29-.72,2.29-1.7,3.01-2.94,.72-1.25,1.09-2.63,1.09-4.16,0-1.52-.35-2.89-1.07-4.12-.72-1.23-1.73-2.21-3.04-2.95-1.3-.74-2.69-1.11-4.16-1.11Z"/><path class="ae" d="M186.57,20.33l-1.51,1.4c-1.08-1.05-2.27-1.85-3.56-2.39-1.29-.54-2.55-.82-3.78-.82-1.53,0-2.98,.36-4.36,1.09s-2.45,1.73-3.21,2.99-1.14,2.59-1.15,3.99c0,1.44,.38,2.8,1.17,4.1s1.87,2.32,3.25,3.06c1.38,.74,2.9,1.12,4.55,1.12,2,0,3.7-.55,5.08-1.65,1.39-1.11,2.21-2.54,2.47-4.31h-6.21v-1.86l8.39,.02c-.02,2.95-.92,5.29-2.69,7.03-1.77,1.73-4.14,2.59-7.1,2.59-3.6,0-6.44-1.22-8.54-3.63-1.61-1.86-2.41-4-2.41-6.43,0-1.81,.47-3.49,1.4-5.05,.93-1.56,2.2-2.77,3.82-3.65,1.62-.88,3.44-1.31,5.48-1.31,1.65,0,3.2,.3,4.66,.89,1.46,.59,2.87,1.53,4.25,2.82Zm-14-7.74h1.75c.3,.45,.7,.79,1.2,1.02,.5,.23,1.1,.34,1.8,.34,.71,0,1.27-.1,1.71-.3,.43-.2,.84-.55,1.23-1.05h1.69c-.2,.78-.69,1.43-1.49,1.96-.8,.52-1.85,.78-3.16,.78-1.3,0-2.36-.26-3.17-.78-.82-.52-1.34-1.17-1.56-1.97Z"/><path class="at" d="M189.42,17.13h1.95l-.04,17.26,7.49,.02v1.84l-9.44-.02,.04-19.1Z"/><path class="aq" d="M200,17.15h1.94l-.03,11.54c0,1.37,.02,2.22,.07,2.56,.1,.75,.32,1.38,.67,1.89,.35,.51,.89,.93,1.62,1.28s1.47,.52,2.21,.52c.64,0,1.26-.13,1.85-.4s1.09-.64,1.48-1.11c.4-.48,.69-1.05,.88-1.73,.13-.48,.2-1.48,.21-2.99l.03-11.53h1.95l-.03,11.54c0,1.71-.18,3.08-.52,4.14-.34,1.05-1.02,1.96-2.04,2.74-1.02,.78-2.25,1.16-3.7,1.16-1.57,0-2.91-.38-4.03-1.11-1.12-.74-1.87-1.71-2.24-2.93-.24-.75-.35-2.09-.35-4.03l.03-11.53Z"/></g><circle class="al" cx="219.06" cy="15.34" r="4.42"/><g><text class="ak" transform="translate(217.27 17.79) rotate(.12) scale(1.03 1)"><tspan x="0" y="0">R</tspan></text><path class="af" d="M217.7,17.79v-4.75h1.79c.37,0,.64,.05,.82,.14s.32,.24,.43,.44c.11,.21,.17,.45,.17,.72,0,.36-.1,.65-.29,.87-.19,.22-.47,.36-.84,.42,.15,.09,.26,.18,.34,.26,.16,.18,.3,.38,.42,.61l.7,1.29h-.67l-.53-.99c-.21-.39-.36-.65-.47-.78-.1-.13-.21-.23-.31-.27-.1-.05-.24-.07-.41-.07h-.61v2.11h-.53Zm.54-2.65h1.14c.25,0,.44-.03,.57-.08s.23-.15,.31-.27c.08-.12,.11-.27,.11-.44,0-.24-.07-.43-.22-.56s-.36-.21-.64-.21h-1.27v1.57Z"/></g></g></g></g></g></svg>